<mxfile host="65bd71144e">
    <diagram name="第 1 页" id="czv0dz-GBIxx080b_6wI">
        <mxGraphModel dx="1040" dy="1900" grid="1" gridSize="11" guides="1" tooltips="1" connect="1" arrows="1" fold="1" page="1" pageScale="1" pageWidth="827" pageHeight="1169" math="0" shadow="0">
            <root>
                <mxCell id="0"/>
                <mxCell id="1" parent="0"/>
                <mxCell id="lKGrQ2MK0r0M78TdMLY--1" value="&lt;div&gt;老師&lt;/div&gt;&lt;div&gt;&lt;br&gt;&lt;/div&gt;" style="shape=umlActor;verticalLabelPosition=bottom;verticalAlign=top;html=1;" parent="1" vertex="1">
                    <mxGeometry x="30" y="-360" width="30" height="60" as="geometry"/>
                </mxCell>
                <mxCell id="lKGrQ2MK0r0M78TdMLY--4" value="Testing" style="shape=umlActor;verticalLabelPosition=bottom;verticalAlign=top;html=1;" parent="1" vertex="1">
                    <mxGeometry x="30" y="-260" width="30" height="60" as="geometry"/>
                </mxCell>
                <mxCell id="lKGrQ2MK0r0M78TdMLY--5" value="Fixing" style="shape=umlActor;verticalLabelPosition=bottom;verticalAlign=top;html=1;" parent="1" vertex="1">
                    <mxGeometry x="30" y="-160" width="30" height="60" as="geometry"/>
                </mxCell>
                <mxCell id="Dm8r0YIzHr2bbyU3Pss4-1" value="AI備課系統" style="shape=umlFrame;whiteSpace=wrap;html=1;pointerEvents=0;recursiveResize=0;container=1;collapsible=0;width=160;" parent="1" vertex="1">
                    <mxGeometry x="190" y="-370" width="460" height="430" as="geometry"/>
                </mxCell>
                <mxCell id="8fR5_x-3oUHtHIp3af_6-2" value="觀察學生上課情形" style="ellipse;html=1;whiteSpace=wrap;" parent="Dm8r0YIzHr2bbyU3Pss4-1" vertex="1">
                    <mxGeometry x="30" y="260" width="120" height="40" as="geometry"/>
                </mxCell>
                <mxCell id="8fR5_x-3oUHtHIp3af_6-4" value="登入" style="ellipse;html=1;whiteSpace=wrap;" parent="Dm8r0YIzHr2bbyU3Pss4-1" vertex="1">
                    <mxGeometry x="110" y="50" width="120" height="40" as="geometry"/>
                </mxCell>
                <mxCell id="8fR5_x-3oUHtHIp3af_6-3" value="&lt;div&gt;蒐集備課資料&lt;/div&gt;" style="ellipse;html=1;whiteSpace=wrap;" parent="Dm8r0YIzHr2bbyU3Pss4-1" vertex="1">
                    <mxGeometry x="30" y="140" width="120" height="40" as="geometry"/>
                </mxCell>
                <mxCell id="8fR5_x-3oUHtHIp3af_6-7" value="蒐集最新新聞" style="ellipse;html=1;whiteSpace=wrap;" parent="Dm8r0YIzHr2bbyU3Pss4-1" vertex="1">
                    <mxGeometry x="250" y="110" width="120" height="40" as="geometry"/>
                </mxCell>
                <mxCell id="8fR5_x-3oUHtHIp3af_6-8" value="蒐集內文相關資料" style="ellipse;html=1;whiteSpace=wrap;" parent="Dm8r0YIzHr2bbyU3Pss4-1" vertex="1">
                    <mxGeometry x="250" y="180" width="120" height="40" as="geometry"/>
                </mxCell>
                <mxCell id="8fR5_x-3oUHtHIp3af_6-18" value="" style="html=1;verticalAlign=bottom;labelBackgroundColor=none;endArrow=block;endFill=1;rounded=0;entryX=1;entryY=0.5;entryDx=0;entryDy=0;exitX=0;exitY=0.5;exitDx=0;exitDy=0;" parent="Dm8r0YIzHr2bbyU3Pss4-1" source="8fR5_x-3oUHtHIp3af_6-8" target="8fR5_x-3oUHtHIp3af_6-3" edge="1">
                    <mxGeometry width="160" relative="1" as="geometry">
                        <mxPoint x="150" y="250" as="sourcePoint"/>
                        <mxPoint x="251" y="280" as="targetPoint"/>
                    </mxGeometry>
                </mxCell>
                <mxCell id="8fR5_x-3oUHtHIp3af_6-19" value="" style="html=1;verticalAlign=bottom;labelBackgroundColor=none;endArrow=block;endFill=1;rounded=0;exitX=0.008;exitY=0.775;exitDx=0;exitDy=0;exitPerimeter=0;" parent="Dm8r0YIzHr2bbyU3Pss4-1" source="8fR5_x-3oUHtHIp3af_6-7" edge="1">
                    <mxGeometry width="160" relative="1" as="geometry">
                        <mxPoint x="270" y="190" as="sourcePoint"/>
                        <mxPoint x="150" y="160" as="targetPoint"/>
                    </mxGeometry>
                </mxCell>
                <mxCell id="8fR5_x-3oUHtHIp3af_6-20" value="分析學生上課情形" style="ellipse;html=1;whiteSpace=wrap;" parent="Dm8r0YIzHr2bbyU3Pss4-1" vertex="1">
                    <mxGeometry x="240" y="260" width="120" height="40" as="geometry"/>
                </mxCell>
                <mxCell id="8fR5_x-3oUHtHIp3af_6-21" value="改善建議" style="ellipse;html=1;whiteSpace=wrap;" parent="Dm8r0YIzHr2bbyU3Pss4-1" vertex="1">
                    <mxGeometry x="250" y="360" width="120" height="40" as="geometry"/>
                </mxCell>
                <mxCell id="8fR5_x-3oUHtHIp3af_6-23" value="&amp;lt;&amp;lt;extend&amp;gt;&amp;gt;" style="endArrow=open;startArrow=none;endFill=0;startFill=0;endSize=8;html=1;verticalAlign=bottom;dashed=1;labelBackgroundColor=none;rounded=0;entryX=0.558;entryY=1.05;entryDx=0;entryDy=0;exitX=0.5;exitY=0;exitDx=0;exitDy=0;entryPerimeter=0;" parent="Dm8r0YIzHr2bbyU3Pss4-1" source="8fR5_x-3oUHtHIp3af_6-21" target="8fR5_x-3oUHtHIp3af_6-20" edge="1">
                    <mxGeometry x="-0.0044" y="-22" width="160" relative="1" as="geometry">
                        <mxPoint x="290" y="330" as="sourcePoint"/>
                        <mxPoint x="393" y="363" as="targetPoint"/>
                        <mxPoint as="offset"/>
                    </mxGeometry>
                </mxCell>
                <mxCell id="8fR5_x-3oUHtHIp3af_6-24" value="&amp;lt;&amp;lt;includ&amp;gt;&amp;gt;" style="endArrow=open;startArrow=none;endFill=0;startFill=0;endSize=8;html=1;verticalAlign=bottom;dashed=1;labelBackgroundColor=none;rounded=0;exitX=0.075;exitY=0.65;exitDx=0;exitDy=0;exitPerimeter=0;" parent="Dm8r0YIzHr2bbyU3Pss4-1" source="8fR5_x-3oUHtHIp3af_6-20" edge="1">
                    <mxGeometry width="160" relative="1" as="geometry">
                        <mxPoint x="470" y="373" as="sourcePoint"/>
                        <mxPoint x="150" y="280" as="targetPoint"/>
                    </mxGeometry>
                </mxCell>
                <mxCell id="8fR5_x-3oUHtHIp3af_6-27" value="&amp;lt;&amp;lt;includ&amp;gt;&amp;gt;" style="endArrow=open;startArrow=none;endFill=0;startFill=0;endSize=8;html=1;verticalAlign=bottom;dashed=1;labelBackgroundColor=none;rounded=0;entryX=0.5;entryY=1;entryDx=0;entryDy=0;exitX=0.592;exitY=-0.025;exitDx=0;exitDy=0;exitPerimeter=0;" parent="Dm8r0YIzHr2bbyU3Pss4-1" source="8fR5_x-3oUHtHIp3af_6-3" target="8fR5_x-3oUHtHIp3af_6-4" edge="1">
                    <mxGeometry width="160" relative="1" as="geometry">
                        <mxPoint x="100" y="107" as="sourcePoint"/>
                        <mxPoint x="203" y="140" as="targetPoint"/>
                    </mxGeometry>
                </mxCell>
                <mxCell id="Dm8r0YIzHr2bbyU3Pss4-9" value="培養學生團體思考" style="ellipse;html=1;whiteSpace=wrap;" parent="1" vertex="1">
                    <mxGeometry x="660" y="-130" width="120" height="40" as="geometry"/>
                </mxCell>
                <mxCell id="Dm8r0YIzHr2bbyU3Pss4-3" value="雲端課程內含小組&lt;span style=&quot;color: rgba(0, 0, 0, 0); font-family: monospace; font-size: 0px; text-align: start; text-wrap: nowrap;&quot;&gt;%3CmxGraphModel%3E%3Croot%3E%3CmxCell%20id%3D%220%22%2F%3E%3CmxCell%20id%3D%221%22%20parent%3D%220%22%2F%3E%3CmxCell%20id%3D%222%22%20value%3D%22%E9%9B%B2%E7%AB%AF%E7%B6%AD%E8%AD%B7%E8%B3%87%E6%96%99%E7%AE%A1%E7%90%86%22%20style%3D%22ellipse%3Bhtml%3D1%3BwhiteSpace%3Dwrap%3B%22%20vertex%3D%221%22%20parent%3D%221%22%3E%3CmxGeometry%20x%3D%22220%22%20y%3D%22-330%22%20width%3D%22120%22%20height%3D%2240%22%20as%3D%22geometry%22%2F%3E%3C%2FmxCell%3E%3C%2Froot%3E%3C%2FmxGraphModel%3E&lt;/span&gt;" style="ellipse;html=1;whiteSpace=wrap;" parent="1" vertex="1">
                    <mxGeometry x="660" y="-190" width="120" height="40" as="geometry"/>
                </mxCell>
                <mxCell id="Dm8r0YIzHr2bbyU3Pss4-5" value="AI分析教師評量" style="ellipse;html=1;whiteSpace=wrap;" parent="1" vertex="1">
                    <mxGeometry x="660" y="-250" width="120" height="40" as="geometry"/>
                </mxCell>
                <mxCell id="Dm8r0YIzHr2bbyU3Pss4-4" value="AI分析內文(課文)並產生例子" style="ellipse;html=1;whiteSpace=wrap;" parent="1" vertex="1">
                    <mxGeometry x="670" y="-320" width="120" height="40" as="geometry"/>
                </mxCell>
                <mxCell id="Dm8r0YIzHr2bbyU3Pss4-2" value="雲端維護資料管理" style="ellipse;html=1;whiteSpace=wrap;" parent="1" vertex="1">
                    <mxGeometry x="670" y="-80" width="120" height="40" as="geometry"/>
                </mxCell>
                <mxCell id="8fR5_x-3oUHtHIp3af_6-12" value="&amp;lt;&amp;lt;includ&amp;gt;&amp;gt;" style="endArrow=open;startArrow=none;endFill=0;startFill=0;endSize=8;html=1;verticalAlign=bottom;dashed=1;labelBackgroundColor=none;rounded=0;entryX=0;entryY=0.5;entryDx=0;entryDy=0;exitX=0.975;exitY=0.675;exitDx=0;exitDy=0;exitPerimeter=0;" parent="1" edge="1">
                    <mxGeometry width="160" relative="1" as="geometry">
                        <mxPoint x="650" y="-20" as="sourcePoint"/>
                        <mxPoint x="753" y="13" as="targetPoint"/>
                    </mxGeometry>
                </mxCell>
                <mxCell id="8fR5_x-3oUHtHIp3af_6-25" value="" style="endArrow=none;startArrow=none;endFill=0;startFill=0;endSize=8;html=1;verticalAlign=bottom;labelBackgroundColor=none;strokeWidth=3;rounded=0;entryX=0;entryY=0.5;entryDx=0;entryDy=0;" parent="1" target="8fR5_x-3oUHtHIp3af_6-3" edge="1">
                    <mxGeometry width="160" relative="1" as="geometry">
                        <mxPoint x="70" y="-310" as="sourcePoint"/>
                        <mxPoint x="230" y="-310" as="targetPoint"/>
                    </mxGeometry>
                </mxCell>
                <mxCell id="8fR5_x-3oUHtHIp3af_6-26" value="" style="endArrow=none;startArrow=none;endFill=0;startFill=0;endSize=8;html=1;verticalAlign=bottom;labelBackgroundColor=none;strokeWidth=3;rounded=0;entryX=0;entryY=0.5;entryDx=0;entryDy=0;exitX=1;exitY=1;exitDx=0;exitDy=0;exitPerimeter=0;" parent="1" source="lKGrQ2MK0r0M78TdMLY--1" target="8fR5_x-3oUHtHIp3af_6-2" edge="1">
                    <mxGeometry width="160" relative="1" as="geometry">
                        <mxPoint x="80" y="-290" as="sourcePoint"/>
                        <mxPoint x="230" y="-183" as="targetPoint"/>
                    </mxGeometry>
                </mxCell>
                <mxCell id="8fR5_x-3oUHtHIp3af_6-28" value="學生" style="shape=umlActor;verticalLabelPosition=bottom;verticalAlign=top;html=1;" parent="1" vertex="1">
                    <mxGeometry x="30" y="-60" width="30" height="60" as="geometry"/>
                </mxCell>
                <mxCell id="2" value="" style="shape=flexArrow;endArrow=classic;startArrow=classic;html=1;" edge="1" parent="1">
                    <mxGeometry width="100" height="100" relative="1" as="geometry">
                        <mxPoint x="176" y="221" as="sourcePoint"/>
                        <mxPoint x="276" y="121" as="targetPoint"/>
                    </mxGeometry>
                </mxCell>
            </root>
        </mxGraphModel>
    </diagram>
</mxfile>